<svg width="46" height="46" viewBox="0 0 46 46" fill="none" xmlns="http://www.w3.org/2000/svg">
<path d="M23 0.5C10.6025 0.5 0.5 10.6025 0.5 23C0.5 35.3975 10.6025 45.5 23 45.5C35.3975 45.5 45.5 35.3975 45.5 23C45.5 10.6025 35.3975 0.5 23 0.5ZM33.755 17.825L20.9975 30.5825C20.6811 30.8985 20.2522 31.076 19.805 31.076C19.3578 31.076 18.9289 30.8985 18.6125 30.5825L12.245 24.215C11.9312 23.8974 11.7552 23.469 11.7552 23.0225C11.7552 22.576 11.9312 22.1476 12.245 21.83C12.8975 21.1775 13.9775 21.1775 14.63 21.83L19.805 27.005L31.37 15.44C32.0225 14.7875 33.1025 14.7875 33.755 15.44C34.4075 16.0925 34.4075 17.15 33.755 17.825Z" fill="#24A749"/>
</svg>
